<?xml version="1.0" encoding="UTF-8"?>
<svg width="16" height="16" version="1.1" viewBox="0 0 20 20" xmlns="http://www.w3.org/2000/svg">
 <g fill="none" stroke="#808080">
  <path d="M 15.5,5 A 5.5,2.5 0 0 1 10,7.5 5.5,2.5 0 0 1 4.5,5 5.5,2.5 0 0 1 10,2.5 5.5,2.5 0 0 1 15.5,5 Z"/>
  <path d="m4.5 5v8"/>
  <path d="m15.5 5v8"/>
  <path d="m4.5 13a5.5 2.5 0 0 0 5.5 2.5 5.5 2.5 0 0 0 5.5-2.5"/>
  <path d="m4.5 10.333a5.5 2.5 0 0 0 5.5 2.5 5.5 2.5 0 0 0 5.5-2.5"/>
  <path d="m4.5 7.6667a5.5 2.5 0 0 0 5.5 2.5 5.5 2.5 0 0 0 5.5-2.5"/>
 </g>
</svg>
