<?xml version="1.0" encoding="UTF-8"?>
<svg width="16" height="16" version="1.1" viewBox="0 0 16 16" xmlns="http://www.w3.org/2000/svg">
 <g fill="none" stroke="#808080">
  <path d="m12.5 4.5a4.5 2 0 0 1-4.5 2 4.5 2 0 0 1-4.5-2 4.5 2 0 0 1 4.5-2 4.5 2 0 0 1 4.5 2z"/>
  <path d="m3.5 4.5v6"/>
  <path d="m12.5 4.5v6"/>
  <path d="m3.5 6.5a4.5 2 0 0 0 4.5 2 4.5 2 0 0 0 4.5-2"/>
  <path d="m3.5 8.5a4.5 2 0 0 0 4.5 2 4.5 2 0 0 0 4.5-2"/>
  <path d="m3.5 10.5a4.5 2 0 0 0 4.5 2 4.5 2 0 0 0 4.5-2"/>
 </g>
</svg>
