<?xml version="1.0" encoding="UTF-8"?>
<svg width="16" height="16" version="1.1" viewBox="0 0 24 24" xmlns="http://www.w3.org/2000/svg">
 <g fill="none" stroke="#808080">
  <path d="m18.5 7.5a6.5 3 0 0 1-6.5 3 6.5 3 0 0 1-6.5-3 6.5 3 0 0 1 6.5-3 6.5 3 0 0 1 6.5 3z"/>
  <path d="m5.5 7.5v9.1"/>
  <path d="m18.5 7.5v9.1"/>
  <path d="m5.5 16.5a6.5 3 0 0 0 6.5 3 6.5 3 0 0 0 6.5-3"/>
  <path d="m5.5 13.5a6.5 3 0 0 0 6.5 3 6.5 3 0 0 0 6.5-3"/>
  <path d="m5.5 10.5a6.5 3 0 0 0 6.5 3 6.5 3 0 0 0 6.5-3"/>
 </g>
</svg>
