<?xml version="1.0" encoding="UTF-8"?>
<svg width="13" height="13" version="1.1" viewBox="0 0 13 13" xmlns="http://www.w3.org/2000/svg">
 <g>
  <path d="m12.642 12.642c-0.47689 0.47689-1.2499 0.47689-1.7268 0l-2.1547-2.1547c-0.88585 0.56829-1.933 0.90688-3.0636 0.90688-3.1463 0-5.6973-2.5506-5.6973-5.6973 0-3.1466 2.551-5.6972 5.6973-5.6972 3.1467 0 5.6973 2.5505 5.6973 5.6972 0 1.1302-0.33902 2.1778-0.90691 3.064l2.1547 2.1547c0.47689 0.47688 0.47689 1.2494 0 1.7263zm-6.9451-11.015c-2.2474 0-4.0695 1.8217-4.0695 4.0694 0 2.2477 1.8221 4.0695 4.0695 4.0695 2.2477 0 4.0694-1.8217 4.0694-4.0695 0-2.2477-1.8217-4.0694-4.0694-4.0694z" fill="#909090"/>
 </g>
</svg>
