<?xml version="1.0" encoding="UTF-8"?>
<svg width="25" height="25" version="1.1" viewBox="0 0 25 25" xmlns="http://www.w3.org/2000/svg">
 <g fill="none" stroke-linejoin="round">
  <path d="m17.803 13.5a4.8809 4.896 0 0 0-4.3027 4.8535 4.8809 4.896 0 0 0 4.8809 4.8965 4.8809 4.896 0 0 0 0.51367-0.037109 12.5 12.5 0 0 0 2.1465-1.6211 4.5555 4.5696 0 0 1-0.38281 0.025391 4.5555 4.5696 0 0 1-4.5547-4.5684 4.5555 4.5696 0 0 1 1.6992-3.5488z" stroke="#f4f4f4"/>
  <g stroke="#a0a0a0" stroke-linecap="round">
   <path d="m7.2175 2.2921a3.5 3.5 0 0 1 1.2825 2.7079 3.5 3.5 0 0 1-3.5 3.5 3.5 3.5 0 0 1-2.7162-1.2926"/>
   <g stroke-width="1px">
    <path d="m5 11v1.5"/>
    <path d="m11 4.9999h1.5"/>
    <path d="m9.5 9.4999 1 1"/>
   </g>
  </g>
 </g>
</svg>
